<svg width="576" height="210" viewBox="0 0 576 210" fill="none" xmlns="http://www.w3.org/2000/svg">
<rect x="28" y="26.0312" width="127.98" height="24" fill="#FCFCFD" fill-opacity="0.15"/>
<rect x="167.39" y="26.0312" width="135.7" height="24" fill="#FCFCFD" fill-opacity="0.15"/>
<rect x="28" y="104.281" width="72.34" height="16" rx="4" fill="#FCFCFD" fill-opacity="0.11"/>
<rect x="105.56" y="104.281" width="42.36" height="16" rx="4" fill="#FCFCFD" fill-opacity="0.11"/>
<rect width="256.41" height="29" transform="translate(153.14 97.1602)" fill="#5160EC" fill-opacity="0.15"/>
<path d="M157.92 117.957L161.154 107.537H163.281L158.619 120.954C158.511 121.241 158.368 121.549 158.189 121.878C158.017 122.215 157.795 122.533 157.523 122.834C157.251 123.135 156.921 123.378 156.535 123.564C156.155 123.758 155.7 123.854 155.17 123.854C155.013 123.854 154.812 123.833 154.569 123.79C154.325 123.747 154.153 123.711 154.053 123.683L154.042 122.071C154.1 122.078 154.189 122.086 154.311 122.093C154.44 122.107 154.529 122.114 154.579 122.114C155.031 122.114 155.414 122.053 155.729 121.932C156.044 121.817 156.309 121.62 156.524 121.341C156.746 121.069 156.936 120.693 157.093 120.213L157.92 117.957ZM155.546 107.537L158.565 116.561L159.08 118.655L157.652 119.386L153.376 107.537H155.546ZM164.376 113.478V113.23C164.376 112.393 164.498 111.616 164.742 110.899C164.985 110.176 165.336 109.549 165.794 109.02C166.253 108.482 166.808 108.067 167.459 107.773C168.111 107.473 168.841 107.322 169.651 107.322C170.467 107.322 171.201 107.473 171.853 107.773C172.512 108.067 173.07 108.482 173.529 109.02C173.994 109.549 174.349 110.176 174.592 110.899C174.836 111.616 174.957 112.393 174.957 113.23V113.478C174.957 114.315 174.836 115.092 174.592 115.809C174.349 116.525 173.994 117.151 173.529 117.688C173.07 118.218 172.515 118.634 171.864 118.935C171.219 119.228 170.489 119.375 169.672 119.375C168.856 119.375 168.122 119.228 167.47 118.935C166.818 118.634 166.26 118.218 165.794 117.688C165.336 117.151 164.985 116.525 164.742 115.809C164.498 115.092 164.376 114.315 164.376 113.478ZM166.364 113.23V113.478C166.364 114.058 166.432 114.605 166.568 115.121C166.704 115.63 166.908 116.081 167.18 116.475C167.459 116.868 167.807 117.18 168.222 117.409C168.637 117.631 169.121 117.742 169.672 117.742C170.216 117.742 170.693 117.631 171.101 117.409C171.516 117.18 171.86 116.868 172.132 116.475C172.404 116.081 172.608 115.63 172.744 115.121C172.888 114.605 172.959 114.058 172.959 113.478V113.23C172.959 112.658 172.888 112.117 172.744 111.608C172.608 111.093 172.401 110.638 172.121 110.244C171.849 109.843 171.506 109.528 171.09 109.299C170.682 109.07 170.202 108.955 169.651 108.955C169.106 108.955 168.627 109.07 168.211 109.299C167.803 109.528 167.459 109.843 167.18 110.244C166.908 110.638 166.704 111.093 166.568 111.608C166.432 112.117 166.364 112.658 166.364 113.23ZM184.561 116.475V107.537H186.559V119.16H184.658L184.561 116.475ZM184.937 114.025L185.764 114.004C185.764 114.777 185.682 115.493 185.517 116.152C185.359 116.804 185.102 117.37 184.744 117.85C184.385 118.329 183.916 118.705 183.336 118.978C182.756 119.243 182.051 119.375 181.22 119.375C180.654 119.375 180.135 119.293 179.662 119.128C179.197 118.963 178.796 118.709 178.459 118.365C178.123 118.021 177.861 117.574 177.675 117.022C177.496 116.471 177.407 115.809 177.407 115.035V107.537H179.394V115.057C179.394 115.579 179.451 116.013 179.566 116.356C179.688 116.693 179.849 116.962 180.049 117.162C180.257 117.355 180.486 117.492 180.737 117.57C180.994 117.649 181.259 117.688 181.532 117.688C182.377 117.688 183.046 117.527 183.54 117.205C184.035 116.876 184.389 116.435 184.604 115.884C184.826 115.325 184.937 114.706 184.937 114.025ZM197.043 102.66V119.16H195.045V102.66H197.043ZM204.144 107.537L199.074 112.962L196.238 115.905L196.077 113.789L198.107 111.361L201.716 107.537H204.144ZM202.328 119.16L198.182 113.617L199.213 111.845L204.67 119.16H202.328ZM208.183 110.019V119.16H206.196V107.537H208.076L208.183 110.019ZM207.71 112.908L206.883 112.876C206.89 112.081 207.008 111.347 207.238 110.674C207.467 109.993 207.789 109.403 208.204 108.901C208.62 108.4 209.114 108.013 209.687 107.741C210.267 107.462 210.908 107.322 211.61 107.322C212.183 107.322 212.698 107.401 213.157 107.559C213.615 107.709 214.005 107.952 214.327 108.289C214.657 108.626 214.908 109.062 215.079 109.6C215.251 110.13 215.337 110.778 215.337 111.544V119.16H213.339V111.522C213.339 110.914 213.25 110.427 213.071 110.062C212.892 109.689 212.63 109.421 212.286 109.256C211.943 109.084 211.52 108.998 211.019 108.998C210.525 108.998 210.074 109.102 209.665 109.31C209.264 109.517 208.917 109.804 208.623 110.169C208.337 110.534 208.111 110.953 207.947 111.426C207.789 111.891 207.71 112.385 207.71 112.908ZM217.829 113.478V113.23C217.829 112.393 217.951 111.616 218.195 110.899C218.438 110.176 218.789 109.549 219.247 109.02C219.706 108.482 220.261 108.067 220.912 107.773C221.564 107.473 222.295 107.322 223.104 107.322C223.92 107.322 224.654 107.473 225.306 107.773C225.965 108.067 226.523 108.482 226.982 109.02C227.447 109.549 227.802 110.176 228.045 110.899C228.289 111.616 228.411 112.393 228.411 113.23V113.478C228.411 114.315 228.289 115.092 228.045 115.809C227.802 116.525 227.447 117.151 226.982 117.688C226.523 118.218 225.968 118.634 225.317 118.935C224.672 119.228 223.942 119.375 223.125 119.375C222.309 119.375 221.575 119.228 220.923 118.935C220.272 118.634 219.713 118.218 219.247 117.688C218.789 117.151 218.438 116.525 218.195 115.809C217.951 115.092 217.829 114.315 217.829 113.478ZM219.817 113.23V113.478C219.817 114.058 219.885 114.605 220.021 115.121C220.157 115.63 220.361 116.081 220.633 116.475C220.912 116.868 221.26 117.18 221.675 117.409C222.091 117.631 222.574 117.742 223.125 117.742C223.67 117.742 224.146 117.631 224.554 117.409C224.969 117.18 225.313 116.868 225.585 116.475C225.857 116.081 226.062 115.63 226.198 115.121C226.341 114.605 226.412 114.058 226.412 113.478V113.23C226.412 112.658 226.341 112.117 226.198 111.608C226.062 111.093 225.854 110.638 225.575 110.244C225.302 109.843 224.959 109.528 224.543 109.299C224.135 109.07 223.655 108.955 223.104 108.955C222.56 108.955 222.08 109.07 221.664 109.299C221.256 109.528 220.912 109.843 220.633 110.244C220.361 110.638 220.157 111.093 220.021 111.608C219.885 112.117 219.817 112.658 219.817 113.23ZM233.846 117.098L236.832 107.537H238.143L237.885 109.438L234.845 119.16H233.567L233.846 117.098ZM231.837 107.537L234.383 117.205L234.566 119.16H233.223L229.85 107.537H231.837ZM241 117.13L243.428 107.537H245.405L242.032 119.16H240.7L241 117.13ZM238.433 107.537L241.355 116.937L241.688 119.16H240.42L237.294 109.417L237.036 107.537H238.433ZM256.168 117.957L259.402 107.537H261.529L256.867 120.954C256.759 121.241 256.616 121.549 256.437 121.878C256.265 122.215 256.043 122.533 255.771 122.834C255.499 123.135 255.169 123.378 254.783 123.564C254.403 123.758 253.948 123.854 253.418 123.854C253.261 123.854 253.06 123.833 252.817 123.79C252.573 123.747 252.401 123.711 252.301 123.683L252.29 122.071C252.348 122.078 252.437 122.086 252.559 122.093C252.688 122.107 252.777 122.114 252.827 122.114C253.279 122.114 253.662 122.053 253.977 121.932C254.292 121.817 254.557 121.62 254.772 121.341C254.994 121.069 255.184 120.693 255.341 120.213L256.168 117.957ZM253.794 107.537L256.813 116.561L257.328 118.655L255.9 119.386L251.624 107.537H253.794ZM262.624 113.478V113.23C262.624 112.393 262.746 111.616 262.99 110.899C263.233 110.176 263.584 109.549 264.042 109.02C264.501 108.482 265.056 108.067 265.707 107.773C266.359 107.473 267.09 107.322 267.899 107.322C268.715 107.322 269.449 107.473 270.101 107.773C270.76 108.067 271.318 108.482 271.777 109.02C272.242 109.549 272.597 110.176 272.84 110.899C273.084 111.616 273.205 112.393 273.205 113.23V113.478C273.205 114.315 273.084 115.092 272.84 115.809C272.597 116.525 272.242 117.151 271.777 117.688C271.318 118.218 270.763 118.634 270.112 118.935C269.467 119.228 268.737 119.375 267.92 119.375C267.104 119.375 266.37 119.228 265.718 118.935C265.066 118.634 264.508 118.218 264.042 117.688C263.584 117.151 263.233 116.525 262.99 115.809C262.746 115.092 262.624 114.315 262.624 113.478ZM264.612 113.23V113.478C264.612 114.058 264.68 114.605 264.816 115.121C264.952 115.63 265.156 116.081 265.428 116.475C265.707 116.868 266.055 117.18 266.47 117.409C266.885 117.631 267.369 117.742 267.92 117.742C268.465 117.742 268.941 117.631 269.349 117.409C269.764 117.18 270.108 116.868 270.38 116.475C270.652 116.081 270.856 115.63 270.993 115.121C271.136 114.605 271.207 114.058 271.207 113.478V113.23C271.207 112.658 271.136 112.117 270.993 111.608C270.856 111.093 270.649 110.638 270.369 110.244C270.097 109.843 269.754 109.528 269.338 109.299C268.93 109.07 268.45 108.955 267.899 108.955C267.355 108.955 266.875 109.07 266.459 109.299C266.051 109.528 265.707 109.843 265.428 110.244C265.156 110.638 264.952 111.093 264.816 111.608C264.68 112.117 264.612 112.658 264.612 113.23ZM282.809 116.475V107.537H284.807V119.16H282.906L282.809 116.475ZM283.185 114.025L284.012 114.004C284.012 114.777 283.93 115.493 283.765 116.152C283.607 116.804 283.35 117.37 282.992 117.85C282.633 118.329 282.164 118.705 281.584 118.978C281.004 119.243 280.299 119.375 279.468 119.375C278.902 119.375 278.383 119.293 277.911 119.128C277.445 118.963 277.044 118.709 276.707 118.365C276.371 118.021 276.109 117.574 275.923 117.022C275.744 116.471 275.655 115.809 275.655 115.035V107.537H277.642V115.057C277.642 115.579 277.699 116.013 277.814 116.356C277.936 116.693 278.097 116.962 278.297 117.162C278.505 117.355 278.734 117.492 278.985 117.57C279.243 117.649 279.508 117.688 279.78 117.688C280.625 117.688 281.294 117.527 281.788 117.205C282.283 116.876 282.637 116.435 282.852 115.884C283.074 115.325 283.185 114.706 283.185 114.025ZM297.945 117.742C298.417 117.742 298.854 117.646 299.255 117.452C299.656 117.259 299.986 116.994 300.244 116.657C300.501 116.313 300.648 115.923 300.684 115.486H302.575C302.539 116.174 302.306 116.815 301.876 117.409C301.454 117.996 300.899 118.473 300.211 118.838C299.524 119.196 298.768 119.375 297.945 119.375C297.071 119.375 296.308 119.221 295.657 118.913C295.012 118.605 294.475 118.183 294.045 117.646C293.623 117.108 293.304 116.493 293.089 115.798C292.882 115.096 292.778 114.355 292.778 113.574V113.123C292.778 112.342 292.882 111.605 293.089 110.91C293.304 110.208 293.623 109.589 294.045 109.052C294.475 108.515 295.012 108.092 295.657 107.784C296.308 107.476 297.071 107.322 297.945 107.322C298.854 107.322 299.649 107.508 300.329 107.881C301.01 108.246 301.543 108.747 301.93 109.385C302.324 110.015 302.539 110.731 302.575 111.533H300.684C300.648 111.053 300.512 110.62 300.276 110.233C300.047 109.847 299.731 109.539 299.33 109.31C298.937 109.073 298.475 108.955 297.945 108.955C297.336 108.955 296.824 109.077 296.409 109.32C296 109.557 295.675 109.879 295.431 110.287C295.195 110.688 295.023 111.136 294.915 111.63C294.815 112.117 294.765 112.615 294.765 113.123V113.574C294.765 114.083 294.815 114.584 294.915 115.078C295.016 115.572 295.184 116.02 295.42 116.421C295.664 116.822 295.99 117.144 296.398 117.388C296.813 117.624 297.329 117.742 297.945 117.742ZM304.283 113.478V113.23C304.283 112.393 304.404 111.616 304.648 110.899C304.891 110.176 305.242 109.549 305.701 109.02C306.159 108.482 306.714 108.067 307.366 107.773C308.017 107.473 308.748 107.322 309.557 107.322C310.373 107.322 311.107 107.473 311.759 107.773C312.418 108.067 312.977 108.482 313.435 109.02C313.9 109.549 314.255 110.176 314.498 110.899C314.742 111.616 314.864 112.393 314.864 113.23V113.478C314.864 114.315 314.742 115.092 314.498 115.809C314.255 116.525 313.9 117.151 313.435 117.688C312.977 118.218 312.422 118.634 311.77 118.935C311.125 119.228 310.395 119.375 309.578 119.375C308.762 119.375 308.028 119.228 307.376 118.935C306.725 118.634 306.166 118.218 305.701 117.688C305.242 117.151 304.891 116.525 304.648 115.809C304.404 115.092 304.283 114.315 304.283 113.478ZM306.27 113.23V113.478C306.27 114.058 306.338 114.605 306.474 115.121C306.61 115.63 306.814 116.081 307.086 116.475C307.366 116.868 307.713 117.18 308.128 117.409C308.544 117.631 309.027 117.742 309.578 117.742C310.123 117.742 310.599 117.631 311.007 117.409C311.423 117.18 311.766 116.868 312.038 116.475C312.311 116.081 312.515 115.63 312.651 115.121C312.794 114.605 312.866 114.058 312.866 113.478V113.23C312.866 112.658 312.794 112.117 312.651 111.608C312.515 111.093 312.307 110.638 312.028 110.244C311.756 109.843 311.412 109.528 310.996 109.299C310.588 109.07 310.108 108.955 309.557 108.955C309.013 108.955 308.533 109.07 308.118 109.299C307.709 109.528 307.366 109.843 307.086 110.244C306.814 110.638 306.61 111.093 306.474 111.608C306.338 112.117 306.27 112.658 306.27 113.23ZM324.467 116.475V107.537H326.465V119.16H324.564L324.467 116.475ZM324.843 114.025L325.67 114.004C325.67 114.777 325.588 115.493 325.423 116.152C325.266 116.804 325.008 117.37 324.65 117.85C324.292 118.329 323.823 118.705 323.243 118.978C322.662 119.243 321.957 119.375 321.126 119.375C320.561 119.375 320.041 119.293 319.569 119.128C319.103 118.963 318.702 118.709 318.366 118.365C318.029 118.021 317.768 117.574 317.581 117.022C317.402 116.471 317.313 115.809 317.313 115.035V107.537H319.3V115.057C319.3 115.579 319.357 116.013 319.472 116.356C319.594 116.693 319.755 116.962 319.955 117.162C320.163 117.355 320.392 117.492 320.643 117.57C320.901 117.649 321.166 117.688 321.438 117.688C322.283 117.688 322.952 117.527 323.447 117.205C323.941 116.876 324.295 116.435 324.51 115.884C324.732 115.325 324.843 114.706 324.843 114.025ZM331.654 102.66V119.16H329.656V102.66H331.654ZM342.17 116.904V102.66H344.168V119.16H342.342L342.17 116.904ZM334.35 113.478V113.252C334.35 112.364 334.457 111.558 334.672 110.835C334.894 110.104 335.206 109.478 335.607 108.955C336.015 108.432 336.498 108.031 337.057 107.752C337.623 107.465 338.253 107.322 338.948 107.322C339.678 107.322 340.315 107.451 340.86 107.709C341.411 107.96 341.877 108.328 342.256 108.815C342.643 109.295 342.947 109.875 343.169 110.556C343.391 111.236 343.545 112.006 343.631 112.865V113.854C343.552 114.706 343.398 115.472 343.169 116.152C342.947 116.833 342.643 117.413 342.256 117.893C341.877 118.372 341.411 118.741 340.86 118.999C340.308 119.25 339.664 119.375 338.926 119.375C338.246 119.375 337.623 119.228 337.057 118.935C336.498 118.641 336.015 118.229 335.607 117.699C335.206 117.169 334.894 116.546 334.672 115.83C334.457 115.107 334.35 114.323 334.35 113.478ZM336.348 113.252V113.478C336.348 114.058 336.405 114.602 336.52 115.11C336.642 115.619 336.828 116.066 337.078 116.453C337.329 116.84 337.648 117.144 338.035 117.366C338.421 117.581 338.883 117.688 339.42 117.688C340.079 117.688 340.62 117.549 341.042 117.27C341.472 116.99 341.816 116.621 342.074 116.163C342.331 115.705 342.532 115.207 342.675 114.67V112.081C342.589 111.687 342.464 111.308 342.299 110.942C342.142 110.57 341.934 110.241 341.676 109.954C341.425 109.66 341.114 109.428 340.742 109.256C340.376 109.084 339.943 108.998 339.442 108.998C338.897 108.998 338.428 109.113 338.035 109.342C337.648 109.564 337.329 109.872 337.078 110.266C336.828 110.652 336.642 111.104 336.52 111.619C336.405 112.128 336.348 112.672 336.348 113.252ZM354.696 109.847V119.16H352.698V107.537H354.588L354.696 109.847ZM354.287 112.908L353.364 112.876C353.371 112.081 353.475 111.347 353.675 110.674C353.876 109.993 354.173 109.403 354.567 108.901C354.961 108.4 355.451 108.013 356.038 107.741C356.626 107.462 357.306 107.322 358.079 107.322C358.624 107.322 359.125 107.401 359.583 107.559C360.042 107.709 360.439 107.949 360.776 108.278C361.112 108.608 361.374 109.03 361.56 109.546C361.746 110.062 361.839 110.685 361.839 111.415V119.16H359.852V111.512C359.852 110.903 359.748 110.416 359.54 110.051C359.34 109.686 359.053 109.421 358.681 109.256C358.309 109.084 357.872 108.998 357.37 108.998C356.783 108.998 356.293 109.102 355.899 109.31C355.505 109.517 355.19 109.804 354.953 110.169C354.717 110.534 354.545 110.953 354.438 111.426C354.338 111.891 354.287 112.385 354.287 112.908ZM361.818 111.812L360.486 112.221C360.493 111.583 360.597 110.971 360.797 110.384C361.005 109.797 361.302 109.274 361.689 108.815C362.083 108.357 362.566 107.995 363.139 107.73C363.712 107.458 364.367 107.322 365.105 107.322C365.728 107.322 366.279 107.405 366.759 107.569C367.246 107.734 367.654 107.988 367.984 108.332C368.32 108.669 368.575 109.102 368.746 109.632C368.918 110.162 369.004 110.792 369.004 111.522V119.16H367.006V111.501C367.006 110.849 366.902 110.344 366.695 109.986C366.494 109.621 366.208 109.367 365.835 109.224C365.47 109.073 365.033 108.998 364.525 108.998C364.088 108.998 363.701 109.073 363.365 109.224C363.028 109.374 362.745 109.582 362.516 109.847C362.287 110.104 362.111 110.402 361.99 110.738C361.875 111.075 361.818 111.433 361.818 111.812ZM378.866 117.173V111.189C378.866 110.731 378.772 110.334 378.586 109.997C378.407 109.653 378.135 109.388 377.77 109.202C377.405 109.016 376.953 108.923 376.416 108.923C375.915 108.923 375.475 109.009 375.095 109.181C374.723 109.353 374.429 109.578 374.214 109.857C374.007 110.137 373.903 110.438 373.903 110.76H371.915C371.915 110.344 372.023 109.933 372.238 109.524C372.452 109.116 372.76 108.747 373.161 108.418C373.57 108.081 374.057 107.816 374.622 107.623C375.195 107.423 375.833 107.322 376.535 107.322C377.38 107.322 378.124 107.465 378.769 107.752C379.421 108.038 379.929 108.472 380.294 109.052C380.667 109.625 380.853 110.344 380.853 111.211V116.625C380.853 117.012 380.885 117.424 380.95 117.86C381.021 118.297 381.125 118.673 381.261 118.988V119.16H379.188C379.088 118.931 379.009 118.627 378.952 118.247C378.894 117.86 378.866 117.502 378.866 117.173ZM379.209 112.113L379.231 113.51H377.222C376.656 113.51 376.151 113.556 375.707 113.649C375.263 113.735 374.891 113.868 374.59 114.047C374.289 114.226 374.06 114.451 373.903 114.724C373.745 114.989 373.666 115.3 373.666 115.658C373.666 116.023 373.749 116.356 373.913 116.657C374.078 116.958 374.325 117.198 374.655 117.377C374.991 117.549 375.403 117.635 375.89 117.635C376.499 117.635 377.036 117.506 377.501 117.248C377.967 116.99 378.336 116.675 378.608 116.303C378.887 115.93 379.037 115.569 379.059 115.218L379.908 116.174C379.857 116.475 379.721 116.808 379.499 117.173C379.277 117.538 378.98 117.889 378.608 118.226C378.243 118.555 377.806 118.831 377.297 119.053C376.796 119.268 376.23 119.375 375.6 119.375C374.812 119.375 374.121 119.221 373.527 118.913C372.939 118.605 372.481 118.193 372.152 117.678C371.829 117.155 371.668 116.571 371.668 115.927C371.668 115.304 371.79 114.756 372.034 114.283C372.277 113.803 372.628 113.406 373.086 113.091C373.545 112.769 374.096 112.525 374.741 112.36C375.385 112.196 376.105 112.113 376.9 112.113H379.209ZM385.977 102.66V119.16H383.979V102.66H385.977ZM393.077 107.537L388.007 112.962L385.171 115.905L385.01 113.789L387.04 111.361L390.65 107.537H393.077ZM391.262 119.16L387.116 113.617L388.147 111.845L393.604 119.16H391.262ZM399.738 119.375C398.928 119.375 398.194 119.239 397.536 118.967C396.884 118.688 396.322 118.297 395.849 117.796C395.383 117.295 395.025 116.7 394.775 116.013C394.524 115.325 394.399 114.573 394.399 113.757V113.306C394.399 112.36 394.538 111.519 394.818 110.781C395.097 110.036 395.477 109.406 395.956 108.891C396.436 108.375 396.98 107.985 397.589 107.72C398.198 107.455 398.828 107.322 399.48 107.322C400.311 107.322 401.027 107.465 401.628 107.752C402.237 108.038 402.735 108.439 403.121 108.955C403.508 109.464 403.795 110.065 403.981 110.76C404.167 111.447 404.26 112.199 404.26 113.016V113.907H395.58V112.285H402.273V112.135C402.244 111.619 402.137 111.118 401.951 110.631C401.772 110.144 401.485 109.743 401.091 109.428C400.697 109.113 400.16 108.955 399.48 108.955C399.029 108.955 398.613 109.052 398.234 109.245C397.854 109.431 397.528 109.711 397.256 110.083C396.984 110.455 396.773 110.91 396.622 111.447C396.472 111.984 396.397 112.604 396.397 113.306V113.757C396.397 114.308 396.472 114.827 396.622 115.314C396.78 115.794 397.006 116.217 397.299 116.582C397.6 116.947 397.962 117.234 398.384 117.441C398.814 117.649 399.301 117.753 399.845 117.753C400.547 117.753 401.141 117.61 401.628 117.323C402.115 117.037 402.541 116.654 402.907 116.174L404.11 117.13C403.859 117.509 403.54 117.871 403.154 118.215C402.767 118.559 402.291 118.838 401.725 119.053C401.166 119.268 400.504 119.375 399.738 119.375Z" fill="#6C79EF"/>
<rect x="409.55" y="97.1602" width="2" height="30.25" fill="#6C79EF"/>
<path d="M409.55 77.1602C409.55 74.951 411.341 73.1602 413.55 73.1602H479.41C481.619 73.1602 483.41 74.951 483.41 77.1602V93.1602C483.41 95.3693 481.619 97.1602 479.41 97.1602H409.55V77.1602Z" fill="#6C79EF"/>
<path d="M420.656 87.1729V80.207H422.365V87.1729C422.365 87.8337 422.224 88.3965 421.942 88.8613C421.659 89.3262 421.274 89.6816 420.786 89.9277C420.299 90.1738 419.745 90.2969 419.125 90.2969C418.492 90.2969 417.929 90.1898 417.437 89.9756C416.949 89.7614 416.566 89.4333 416.288 88.9912C416.01 88.5492 415.871 87.9886 415.871 87.3096H417.594C417.594 87.7015 417.655 88.0182 417.779 88.2598C417.906 88.4967 418.084 88.6699 418.312 88.7793C418.544 88.8841 418.815 88.9365 419.125 88.9365C419.421 88.9365 419.683 88.8704 419.911 88.7383C420.144 88.6016 420.326 88.4033 420.458 88.1436C420.59 87.8792 420.656 87.5557 420.656 87.1729ZM423.862 86.5439V86.3867C423.862 85.8535 423.94 85.359 424.095 84.9033C424.25 84.443 424.473 84.0443 424.765 83.707C425.061 83.3652 425.421 83.1009 425.845 82.9141C426.273 82.7227 426.756 82.627 427.294 82.627C427.836 82.627 428.32 82.7227 428.743 82.9141C429.172 83.1009 429.534 83.3652 429.83 83.707C430.126 84.0443 430.352 84.443 430.507 84.9033C430.662 85.359 430.739 85.8535 430.739 86.3867V86.5439C430.739 87.0771 430.662 87.5716 430.507 88.0273C430.352 88.4831 430.126 88.8818 429.83 89.2236C429.534 89.5609 429.174 89.8252 428.75 90.0166C428.326 90.2035 427.846 90.2969 427.308 90.2969C426.765 90.2969 426.28 90.2035 425.852 90.0166C425.428 89.8252 425.068 89.5609 424.772 89.2236C424.475 88.8818 424.25 88.4831 424.095 88.0273C423.94 87.5716 423.862 87.0771 423.862 86.5439ZM425.51 86.3867V86.5439C425.51 86.8766 425.544 87.1911 425.612 87.4873C425.681 87.7835 425.788 88.0433 425.934 88.2666C426.08 88.4899 426.266 88.6654 426.494 88.793C426.722 88.9206 426.993 88.9844 427.308 88.9844C427.613 88.9844 427.877 88.9206 428.101 88.793C428.329 88.6654 428.515 88.4899 428.661 88.2666C428.807 88.0433 428.914 87.7835 428.983 87.4873C429.056 87.1911 429.092 86.8766 429.092 86.5439V86.3867C429.092 86.0586 429.056 85.7487 428.983 85.457C428.914 85.1608 428.805 84.8988 428.654 84.6709C428.509 84.443 428.322 84.2653 428.094 84.1377C427.871 84.0055 427.604 83.9395 427.294 83.9395C426.984 83.9395 426.715 84.0055 426.487 84.1377C426.264 84.2653 426.08 84.443 425.934 84.6709C425.788 84.8988 425.681 85.1608 425.612 85.457C425.544 85.7487 425.51 86.0586 425.51 86.3867ZM433.754 84.3428V90.1602H432.107V82.7637H433.658L433.754 84.3428ZM433.46 86.1885L432.927 86.1816C432.931 85.6576 433.004 85.1768 433.146 84.7393C433.292 84.3018 433.492 83.9258 433.747 83.6113C434.007 83.2969 434.317 83.0553 434.677 82.8867C435.037 82.7135 435.438 82.627 435.88 82.627C436.236 82.627 436.557 82.6771 436.844 82.7773C437.136 82.873 437.384 83.0303 437.589 83.249C437.799 83.4678 437.958 83.7526 438.068 84.1035C438.177 84.4499 438.232 84.876 438.232 85.3818V90.1602H436.577V85.375C436.577 85.0195 436.525 84.7393 436.42 84.5342C436.32 84.3245 436.172 84.1764 435.976 84.0898C435.784 83.9987 435.545 83.9531 435.258 83.9531C434.975 83.9531 434.723 84.0124 434.499 84.1309C434.276 84.2493 434.087 84.4111 433.932 84.6162C433.781 84.8213 433.665 85.0583 433.583 85.3271C433.501 85.596 433.46 85.8831 433.46 86.1885ZM444.083 88.6768V85.1494C444.083 84.8851 444.035 84.6572 443.94 84.4658C443.844 84.2744 443.698 84.1263 443.502 84.0215C443.311 83.9167 443.069 83.8643 442.778 83.8643C442.509 83.8643 442.276 83.9098 442.08 84.001C441.884 84.0921 441.732 84.2152 441.622 84.3701C441.513 84.5251 441.458 84.7005 441.458 84.8965H439.818C439.818 84.6048 439.888 84.3223 440.029 84.0488C440.171 83.7754 440.376 83.5316 440.645 83.3174C440.914 83.1032 441.235 82.9346 441.609 82.8115C441.982 82.6885 442.402 82.627 442.866 82.627C443.422 82.627 443.915 82.7204 444.343 82.9072C444.776 83.0941 445.115 83.3766 445.362 83.7549C445.612 84.1286 445.737 84.598 445.737 85.1631V88.4512C445.737 88.7884 445.76 89.0915 445.806 89.3604C445.856 89.6247 445.927 89.8548 446.018 90.0508V90.1602H444.329C444.252 89.9824 444.19 89.7568 444.145 89.4834C444.104 89.2054 444.083 88.9365 444.083 88.6768ZM444.322 85.6621L444.336 86.6807H443.154C442.848 86.6807 442.579 86.7103 442.347 86.7695C442.114 86.8242 441.921 86.9062 441.766 87.0156C441.611 87.125 441.495 87.2572 441.417 87.4121C441.34 87.5671 441.301 87.7425 441.301 87.9385C441.301 88.1344 441.347 88.3145 441.438 88.4785C441.529 88.638 441.661 88.7633 441.834 88.8545C442.012 88.9456 442.226 88.9912 442.477 88.9912C442.814 88.9912 443.108 88.9229 443.359 88.7861C443.614 88.6449 443.814 88.474 443.96 88.2734C444.106 88.0684 444.183 87.8747 444.193 87.6924L444.726 88.4238C444.671 88.6107 444.578 88.8112 444.445 89.0254C444.313 89.2396 444.14 89.4447 443.926 89.6406C443.716 89.832 443.463 89.9893 443.167 90.1123C442.876 90.2354 442.538 90.2969 442.155 90.2969C441.672 90.2969 441.242 90.2012 440.863 90.0098C440.485 89.8138 440.189 89.5518 439.975 89.2236C439.761 88.891 439.654 88.515 439.654 88.0957C439.654 87.7038 439.726 87.3574 439.872 87.0566C440.023 86.7513 440.241 86.4961 440.529 86.291C440.82 86.0859 441.176 85.931 441.595 85.8262C442.014 85.7168 442.493 85.6621 443.03 85.6621H444.322ZM450.851 82.7637V83.9668H446.681V82.7637H450.851ZM447.884 80.9521H449.531V88.1162C449.531 88.3441 449.563 88.5195 449.627 88.6426C449.695 88.7611 449.789 88.8408 449.907 88.8818C450.026 88.9229 450.165 88.9434 450.324 88.9434C450.438 88.9434 450.548 88.9365 450.653 88.9229C450.757 88.9092 450.842 88.8955 450.905 88.8818L450.912 90.1396C450.776 90.1807 450.616 90.2171 450.434 90.249C450.256 90.2809 450.051 90.2969 449.819 90.2969C449.44 90.2969 449.105 90.2308 448.814 90.0986C448.522 89.9619 448.294 89.7409 448.13 89.4355C447.966 89.1302 447.884 88.7246 447.884 88.2188V80.9521ZM453.749 79.6602V90.1602H452.109V79.6602H453.749ZM453.462 86.1885L452.929 86.1816C452.933 85.6712 453.004 85.1995 453.141 84.7666C453.282 84.3337 453.478 83.9577 453.729 83.6387C453.984 83.3151 454.289 83.0667 454.645 82.8936C455 82.7158 455.394 82.627 455.827 82.627C456.192 82.627 456.52 82.6771 456.812 82.7773C457.108 82.8776 457.363 83.0394 457.577 83.2627C457.792 83.4814 457.953 83.7686 458.063 84.124C458.177 84.4749 458.234 84.9033 458.234 85.4092V90.1602H456.579V85.3955C456.579 85.04 456.527 84.7575 456.422 84.5479C456.322 84.3382 456.174 84.1878 455.978 84.0967C455.782 84.001 455.543 83.9531 455.26 83.9531C454.964 83.9531 454.702 84.0124 454.474 84.1309C454.251 84.2493 454.064 84.4111 453.913 84.6162C453.763 84.8213 453.649 85.0583 453.571 85.3271C453.499 85.596 453.462 85.8831 453.462 86.1885ZM464.071 88.6768V85.1494C464.071 84.8851 464.024 84.6572 463.928 84.4658C463.832 84.2744 463.686 84.1263 463.49 84.0215C463.299 83.9167 463.057 83.8643 462.766 83.8643C462.497 83.8643 462.265 83.9098 462.069 84.001C461.873 84.0921 461.72 84.2152 461.611 84.3701C461.501 84.5251 461.446 84.7005 461.446 84.8965H459.806C459.806 84.6048 459.876 84.3223 460.018 84.0488C460.159 83.7754 460.364 83.5316 460.633 83.3174C460.902 83.1032 461.223 82.9346 461.597 82.8115C461.971 82.6885 462.39 82.627 462.855 82.627C463.411 82.627 463.903 82.7204 464.331 82.9072C464.764 83.0941 465.104 83.3766 465.35 83.7549C465.6 84.1286 465.726 84.598 465.726 85.1631V88.4512C465.726 88.7884 465.749 89.0915 465.794 89.3604C465.844 89.6247 465.915 89.8548 466.006 90.0508V90.1602H464.318C464.24 89.9824 464.179 89.7568 464.133 89.4834C464.092 89.2054 464.071 88.9365 464.071 88.6768ZM464.311 85.6621L464.324 86.6807H463.142C462.836 86.6807 462.568 86.7103 462.335 86.7695C462.103 86.8242 461.909 86.9062 461.754 87.0156C461.599 87.125 461.483 87.2572 461.405 87.4121C461.328 87.5671 461.289 87.7425 461.289 87.9385C461.289 88.1344 461.335 88.3145 461.426 88.4785C461.517 88.638 461.649 88.7633 461.822 88.8545C462 88.9456 462.214 88.9912 462.465 88.9912C462.802 88.9912 463.096 88.9229 463.347 88.7861C463.602 88.6449 463.803 88.474 463.948 88.2734C464.094 88.0684 464.172 87.8747 464.181 87.6924L464.714 88.4238C464.659 88.6107 464.566 88.8112 464.434 89.0254C464.302 89.2396 464.128 89.4447 463.914 89.6406C463.705 89.832 463.452 89.9893 463.155 90.1123C462.864 90.2354 462.527 90.2969 462.144 90.2969C461.661 90.2969 461.23 90.2012 460.852 90.0098C460.473 89.8138 460.177 89.5518 459.963 89.2236C459.749 88.891 459.642 88.515 459.642 88.0957C459.642 87.7038 459.715 87.3574 459.861 87.0566C460.011 86.7513 460.23 86.4961 460.517 86.291C460.808 86.0859 461.164 85.931 461.583 85.8262C462.002 85.7168 462.481 85.6621 463.019 85.6621H464.311ZM469.082 84.3428V90.1602H467.435V82.7637H468.987L469.082 84.3428ZM468.788 86.1885L468.255 86.1816C468.26 85.6576 468.333 85.1768 468.474 84.7393C468.62 84.3018 468.82 83.9258 469.075 83.6113C469.335 83.2969 469.645 83.0553 470.005 82.8867C470.365 82.7135 470.766 82.627 471.208 82.627C471.564 82.627 471.885 82.6771 472.172 82.7773C472.464 82.873 472.712 83.0303 472.917 83.249C473.127 83.4678 473.286 83.7526 473.396 84.1035C473.505 84.4499 473.56 84.876 473.56 85.3818V90.1602H471.905V85.375C471.905 85.0195 471.853 84.7393 471.748 84.5342C471.648 84.3245 471.5 84.1764 471.304 84.0898C471.112 83.9987 470.873 83.9531 470.586 83.9531C470.304 83.9531 470.051 84.0124 469.827 84.1309C469.604 84.2493 469.415 84.4111 469.26 84.6162C469.11 84.8213 468.993 85.0583 468.911 85.3271C468.829 85.596 468.788 85.8831 468.788 86.1885Z" fill="black"/>
<rect x="414.77" y="104.281" width="35.16" height="16" rx="4" fill="#FCFCFD" fill-opacity="0.11"/>
<rect x="455.14" y="104.281" width="38.16" height="16" rx="4" fill="#FCFCFD" fill-opacity="0.11"/>
<rect x="28" y="134.531" width="59.19" height="16" rx="4" fill="#FCFCFD" fill-opacity="0.11"/>
<rect x="92.41" y="134.531" width="129.86" height="16" rx="4" fill="#FCFCFD" fill-opacity="0.11"/>
<rect x="227.48" y="134.531" width="41.11" height="16" rx="4" fill="#FCFCFD" fill-opacity="0.11"/>
<rect x="273.81" y="134.531" width="36.38" height="16" rx="4" fill="#FCFCFD" fill-opacity="0.11"/>
<rect x="315.41" y="134.531" width="12.31" height="16" rx="4" fill="#FCFCFD" fill-opacity="0.11"/>
<rect x="332.94" y="134.531" width="35.02" height="16" rx="4" fill="#FCFCFD" fill-opacity="0.11"/>
<rect x="373.17" y="134.531" width="47.44" height="16" rx="4" fill="#FCFCFD" fill-opacity="0.11"/>
<rect x="425.83" y="134.531" width="19.98" height="16" rx="4" fill="#FCFCFD" fill-opacity="0.11"/>
<rect x="451.03" y="134.531" width="62.58" height="16" rx="4" fill="#FCFCFD" fill-opacity="0.11"/>
<rect width="178.47" height="29" transform="translate(28 179.66)" fill="#51ECC5" fill-opacity="0.13"/>
<path d="M35.5947 186.02V201.66H33.5537V186.02H35.5947ZM40.6221 186.02V187.717H28.5371V186.02H40.6221ZM44.6289 185.16V201.66H42.6416V185.16H44.6289ZM44.1562 195.408L43.3291 195.376C43.3363 194.581 43.4544 193.847 43.6836 193.174C43.9128 192.493 44.235 191.903 44.6504 191.401C45.0658 190.9 45.5599 190.513 46.1328 190.241C46.7129 189.962 47.3538 189.822 48.0557 189.822C48.6286 189.822 49.1442 189.901 49.6025 190.059C50.0609 190.209 50.4512 190.452 50.7734 190.789C51.1029 191.126 51.3535 191.562 51.5254 192.1C51.6973 192.63 51.7832 193.278 51.7832 194.044V201.66H49.7852V194.022C49.7852 193.414 49.6956 192.927 49.5166 192.562C49.3376 192.189 49.0762 191.921 48.7324 191.756C48.3887 191.584 47.9661 191.498 47.4648 191.498C46.9707 191.498 46.5195 191.602 46.1113 191.81C45.7103 192.017 45.363 192.304 45.0693 192.669C44.7829 193.034 44.5573 193.453 44.3926 193.926C44.235 194.391 44.1562 194.885 44.1562 195.408ZM61.6123 199.673V193.689C61.6123 193.231 61.5192 192.834 61.333 192.497C61.154 192.153 60.8818 191.888 60.5166 191.702C60.1514 191.516 59.7002 191.423 59.1631 191.423C58.6618 191.423 58.2214 191.509 57.8418 191.681C57.4694 191.853 57.1758 192.078 56.9609 192.357C56.7533 192.637 56.6494 192.938 56.6494 193.26H54.6621C54.6621 192.844 54.7695 192.433 54.9844 192.024C55.1992 191.616 55.5072 191.247 55.9082 190.918C56.3164 190.581 56.8034 190.316 57.3691 190.123C57.9421 189.923 58.5794 189.822 59.2812 189.822C60.1263 189.822 60.8711 189.965 61.5156 190.252C62.1673 190.538 62.6758 190.972 63.041 191.552C63.4134 192.125 63.5996 192.844 63.5996 193.711V199.125C63.5996 199.512 63.6318 199.924 63.6963 200.36C63.7679 200.797 63.8717 201.173 64.0078 201.488V201.66H61.9346C61.8343 201.431 61.7555 201.127 61.6982 200.747C61.641 200.36 61.6123 200.002 61.6123 199.673ZM61.9561 194.613L61.9775 196.01H59.9688C59.403 196.01 58.8981 196.056 58.4541 196.149C58.0101 196.235 57.6377 196.368 57.3369 196.547C57.0361 196.726 56.807 196.951 56.6494 197.224C56.4919 197.489 56.4131 197.8 56.4131 198.158C56.4131 198.523 56.4954 198.856 56.6602 199.157C56.8249 199.458 57.0719 199.698 57.4014 199.877C57.738 200.049 58.1497 200.135 58.6367 200.135C59.2454 200.135 59.7826 200.006 60.248 199.748C60.7135 199.49 61.0824 199.175 61.3545 198.803C61.6338 198.43 61.7842 198.069 61.8057 197.718L62.6543 198.674C62.6042 198.975 62.4681 199.308 62.2461 199.673C62.0241 200.038 61.7269 200.389 61.3545 200.726C60.9893 201.055 60.5524 201.331 60.0439 201.553C59.5426 201.768 58.9769 201.875 58.3467 201.875C57.5589 201.875 56.8678 201.721 56.2734 201.413C55.6862 201.105 55.2279 200.693 54.8984 200.178C54.5762 199.655 54.415 199.071 54.415 198.427C54.415 197.804 54.5368 197.256 54.7803 196.783C55.0238 196.303 55.3747 195.906 55.833 195.591C56.2913 195.269 56.8428 195.025 57.4873 194.86C58.1318 194.696 58.8516 194.613 59.6465 194.613H61.9561ZM71.5918 190.037V191.562H65.3076V190.037H71.5918ZM67.4346 187.212H69.4219V198.781C69.4219 199.175 69.4827 199.472 69.6045 199.673C69.7262 199.873 69.8838 200.006 70.0771 200.07C70.2705 200.135 70.4782 200.167 70.7002 200.167C70.8649 200.167 71.0368 200.153 71.2158 200.124C71.402 200.088 71.5417 200.06 71.6348 200.038L71.6455 201.66C71.488 201.71 71.2803 201.757 71.0225 201.8C70.7718 201.85 70.4674 201.875 70.1094 201.875C69.6224 201.875 69.1748 201.778 68.7666 201.585C68.3584 201.392 68.0326 201.069 67.7891 200.618C67.5527 200.16 67.4346 199.544 67.4346 198.771V187.212ZM75.9316 185.16V186.535C75.9316 186.965 75.8564 187.42 75.7061 187.899C75.5628 188.372 75.3516 188.83 75.0723 189.274C74.793 189.711 74.4564 190.094 74.0625 190.424L72.9238 189.64C73.2604 189.167 73.5146 188.684 73.6865 188.189C73.8656 187.688 73.9551 187.147 73.9551 186.567V185.16H75.9316ZM83.8916 198.577C83.8916 198.291 83.8271 198.026 83.6982 197.782C83.5765 197.532 83.3223 197.306 82.9355 197.105C82.556 196.898 81.9831 196.719 81.2168 196.568C80.5723 196.432 79.9886 196.271 79.4658 196.085C78.9502 195.899 78.5098 195.673 78.1445 195.408C77.7865 195.143 77.5107 194.832 77.3174 194.474C77.124 194.116 77.0273 193.697 77.0273 193.217C77.0273 192.758 77.1276 192.325 77.3281 191.917C77.5358 191.509 77.8258 191.147 78.1982 190.832C78.5778 190.517 79.0326 190.27 79.5625 190.091C80.0924 189.912 80.6833 189.822 81.335 189.822C82.266 189.822 83.0609 189.987 83.7197 190.316C84.3786 190.646 84.8835 191.086 85.2344 191.638C85.5853 192.182 85.7607 192.787 85.7607 193.453H83.7734C83.7734 193.131 83.6768 192.819 83.4834 192.519C83.2972 192.211 83.0215 191.956 82.6562 191.756C82.2982 191.555 81.8577 191.455 81.335 191.455C80.7835 191.455 80.3359 191.541 79.9922 191.713C79.6556 191.878 79.4085 192.089 79.251 192.347C79.1006 192.604 79.0254 192.877 79.0254 193.163C79.0254 193.378 79.0612 193.571 79.1328 193.743C79.2116 193.908 79.3477 194.062 79.541 194.205C79.7344 194.341 80.0065 194.47 80.3574 194.592C80.7083 194.714 81.1559 194.835 81.7002 194.957C82.6527 195.172 83.4368 195.43 84.0527 195.73C84.6686 196.031 85.127 196.4 85.4277 196.837C85.7285 197.274 85.8789 197.804 85.8789 198.427C85.8789 198.935 85.7715 199.401 85.5566 199.823C85.349 200.246 85.0446 200.611 84.6436 200.919C84.2497 201.22 83.777 201.456 83.2256 201.628C82.6813 201.793 82.069 201.875 81.3887 201.875C80.3646 201.875 79.498 201.692 78.7891 201.327C78.0801 200.962 77.543 200.489 77.1777 199.909C76.8125 199.329 76.6299 198.717 76.6299 198.072H78.6279C78.6566 198.617 78.8141 199.05 79.1006 199.372C79.387 199.687 79.738 199.913 80.1533 200.049C80.5687 200.178 80.9805 200.242 81.3887 200.242C81.9329 200.242 82.3877 200.171 82.7529 200.027C83.1253 199.884 83.4082 199.687 83.6016 199.437C83.7949 199.186 83.8916 198.899 83.8916 198.577ZM95.9336 192.271V206.129H93.9355V190.037H95.7617L95.9336 192.271ZM103.765 195.752V195.978C103.765 196.823 103.664 197.607 103.464 198.33C103.263 199.046 102.97 199.669 102.583 200.199C102.203 200.729 101.734 201.141 101.176 201.435C100.617 201.728 99.9762 201.875 99.2529 201.875C98.5153 201.875 97.8636 201.753 97.2979 201.51C96.7321 201.266 96.2523 200.912 95.8584 200.446C95.4645 199.981 95.1494 199.422 94.9131 198.771C94.6839 198.119 94.5264 197.385 94.4404 196.568V195.365C94.5264 194.506 94.6875 193.736 94.9238 193.056C95.1602 192.375 95.4717 191.795 95.8584 191.315C96.2523 190.828 96.7285 190.46 97.2871 190.209C97.8457 189.951 98.4902 189.822 99.2207 189.822C99.9512 189.822 100.599 189.965 101.165 190.252C101.731 190.531 102.207 190.932 102.594 191.455C102.98 191.978 103.271 192.604 103.464 193.335C103.664 194.058 103.765 194.864 103.765 195.752ZM101.767 195.978V195.752C101.767 195.172 101.706 194.628 101.584 194.119C101.462 193.604 101.272 193.152 101.015 192.766C100.764 192.372 100.442 192.064 100.048 191.842C99.654 191.613 99.1849 191.498 98.6406 191.498C98.1393 191.498 97.7025 191.584 97.3301 191.756C96.9648 191.928 96.6533 192.16 96.3955 192.454C96.1377 192.741 95.9264 193.07 95.7617 193.442C95.6042 193.808 95.486 194.187 95.4072 194.581V197.363C95.5505 197.865 95.751 198.337 96.0088 198.781C96.2666 199.218 96.6104 199.573 97.04 199.845C97.4697 200.11 98.0104 200.242 98.6621 200.242C99.1992 200.242 99.6611 200.131 100.048 199.909C100.442 199.68 100.764 199.368 101.015 198.975C101.272 198.581 101.462 198.13 101.584 197.621C101.706 197.105 101.767 196.558 101.767 195.978ZM108.287 191.863V201.66H106.3V190.037H108.233L108.287 191.863ZM111.918 189.973L111.907 191.82C111.743 191.785 111.585 191.763 111.435 191.756C111.291 191.742 111.127 191.734 110.94 191.734C110.482 191.734 110.077 191.806 109.727 191.949C109.376 192.092 109.078 192.293 108.835 192.551C108.591 192.809 108.398 193.117 108.255 193.475C108.119 193.826 108.029 194.212 107.986 194.635L107.428 194.957C107.428 194.255 107.496 193.596 107.632 192.98C107.775 192.365 107.993 191.82 108.287 191.348C108.581 190.868 108.953 190.495 109.404 190.23C109.863 189.958 110.407 189.822 111.037 189.822C111.18 189.822 111.345 189.84 111.531 189.876C111.717 189.905 111.846 189.937 111.918 189.973ZM118.363 201.875C117.554 201.875 116.82 201.739 116.161 201.467C115.509 201.188 114.947 200.797 114.475 200.296C114.009 199.795 113.651 199.2 113.4 198.513C113.15 197.825 113.024 197.073 113.024 196.257V195.806C113.024 194.86 113.164 194.019 113.443 193.281C113.723 192.536 114.102 191.906 114.582 191.391C115.062 190.875 115.606 190.485 116.215 190.22C116.824 189.955 117.454 189.822 118.105 189.822C118.936 189.822 119.652 189.965 120.254 190.252C120.863 190.538 121.36 190.939 121.747 191.455C122.134 191.964 122.42 192.565 122.606 193.26C122.793 193.947 122.886 194.699 122.886 195.516V196.407H114.206V194.785H120.898V194.635C120.87 194.119 120.762 193.618 120.576 193.131C120.397 192.644 120.111 192.243 119.717 191.928C119.323 191.613 118.786 191.455 118.105 191.455C117.654 191.455 117.239 191.552 116.859 191.745C116.48 191.931 116.154 192.211 115.882 192.583C115.61 192.955 115.398 193.41 115.248 193.947C115.098 194.484 115.022 195.104 115.022 195.806V196.257C115.022 196.808 115.098 197.327 115.248 197.814C115.406 198.294 115.631 198.717 115.925 199.082C116.226 199.447 116.587 199.734 117.01 199.941C117.439 200.149 117.926 200.253 118.471 200.253C119.173 200.253 119.767 200.11 120.254 199.823C120.741 199.537 121.167 199.154 121.532 198.674L122.735 199.63C122.485 200.009 122.166 200.371 121.779 200.715C121.393 201.059 120.916 201.338 120.351 201.553C119.792 201.768 119.13 201.875 118.363 201.875ZM130.072 190.037V191.562H123.788V190.037H130.072ZM125.915 187.212H127.902V198.781C127.902 199.175 127.963 199.472 128.085 199.673C128.207 199.873 128.364 200.006 128.558 200.07C128.751 200.135 128.959 200.167 129.181 200.167C129.345 200.167 129.517 200.153 129.696 200.124C129.882 200.088 130.022 200.06 130.115 200.038L130.126 201.66C129.968 201.71 129.761 201.757 129.503 201.8C129.252 201.85 128.948 201.875 128.59 201.875C128.103 201.875 127.655 201.778 127.247 201.585C126.839 201.392 126.513 201.069 126.27 200.618C126.033 200.16 125.915 199.544 125.915 198.771V187.212ZM137.27 190.037V191.562H130.985V190.037H137.27ZM133.112 187.212H135.1V198.781C135.1 199.175 135.16 199.472 135.282 199.673C135.404 199.873 135.562 200.006 135.755 200.07C135.948 200.135 136.156 200.167 136.378 200.167C136.543 200.167 136.715 200.153 136.894 200.124C137.08 200.088 137.219 200.06 137.312 200.038L137.323 201.66C137.166 201.71 136.958 201.757 136.7 201.8C136.45 201.85 136.145 201.875 135.787 201.875C135.3 201.875 134.853 201.778 134.444 201.585C134.036 201.392 133.71 201.069 133.467 200.618C133.23 200.16 133.112 199.544 133.112 198.771V187.212ZM142.866 200.457L146.1 190.037H148.227L143.564 203.454C143.457 203.741 143.314 204.049 143.135 204.378C142.963 204.715 142.741 205.033 142.469 205.334C142.197 205.635 141.867 205.878 141.48 206.064C141.101 206.258 140.646 206.354 140.116 206.354C139.959 206.354 139.758 206.333 139.515 206.29C139.271 206.247 139.099 206.211 138.999 206.183L138.988 204.571C139.046 204.578 139.135 204.586 139.257 204.593C139.386 204.607 139.475 204.614 139.525 204.614C139.977 204.614 140.36 204.553 140.675 204.432C140.99 204.317 141.255 204.12 141.47 203.841C141.692 203.569 141.882 203.193 142.039 202.713L142.866 200.457ZM140.492 190.037L143.511 199.061L144.026 201.155L142.598 201.886L138.322 190.037H140.492ZM160.129 200.242C160.602 200.242 161.038 200.146 161.439 199.952C161.84 199.759 162.17 199.494 162.428 199.157C162.686 198.813 162.832 198.423 162.868 197.986H164.759C164.723 198.674 164.49 199.315 164.061 199.909C163.638 200.496 163.083 200.973 162.396 201.338C161.708 201.696 160.952 201.875 160.129 201.875C159.255 201.875 158.493 201.721 157.841 201.413C157.196 201.105 156.659 200.683 156.229 200.146C155.807 199.608 155.488 198.993 155.273 198.298C155.066 197.596 154.962 196.855 154.962 196.074V195.623C154.962 194.842 155.066 194.105 155.273 193.41C155.488 192.708 155.807 192.089 156.229 191.552C156.659 191.015 157.196 190.592 157.841 190.284C158.493 189.976 159.255 189.822 160.129 189.822C161.038 189.822 161.833 190.008 162.514 190.381C163.194 190.746 163.728 191.247 164.114 191.885C164.508 192.515 164.723 193.231 164.759 194.033H162.868C162.832 193.553 162.696 193.12 162.46 192.733C162.231 192.347 161.916 192.039 161.515 191.81C161.121 191.573 160.659 191.455 160.129 191.455C159.52 191.455 159.008 191.577 158.593 191.82C158.185 192.057 157.859 192.379 157.615 192.787C157.379 193.188 157.207 193.636 157.1 194.13C156.999 194.617 156.949 195.115 156.949 195.623V196.074C156.949 196.583 156.999 197.084 157.1 197.578C157.2 198.072 157.368 198.52 157.604 198.921C157.848 199.322 158.174 199.644 158.582 199.888C158.997 200.124 159.513 200.242 160.129 200.242ZM166.467 195.978V195.73C166.467 194.893 166.589 194.116 166.832 193.399C167.076 192.676 167.426 192.049 167.885 191.52C168.343 190.982 168.898 190.567 169.55 190.273C170.201 189.973 170.932 189.822 171.741 189.822C172.558 189.822 173.292 189.973 173.943 190.273C174.602 190.567 175.161 190.982 175.619 191.52C176.085 192.049 176.439 192.676 176.683 193.399C176.926 194.116 177.048 194.893 177.048 195.73V195.978C177.048 196.815 176.926 197.592 176.683 198.309C176.439 199.025 176.085 199.651 175.619 200.188C175.161 200.718 174.606 201.134 173.954 201.435C173.31 201.728 172.579 201.875 171.763 201.875C170.946 201.875 170.212 201.728 169.561 201.435C168.909 201.134 168.35 200.718 167.885 200.188C167.426 199.651 167.076 199.025 166.832 198.309C166.589 197.592 166.467 196.815 166.467 195.978ZM168.454 195.73V195.978C168.454 196.558 168.522 197.105 168.658 197.621C168.794 198.13 168.998 198.581 169.271 198.975C169.55 199.368 169.897 199.68 170.312 199.909C170.728 200.131 171.211 200.242 171.763 200.242C172.307 200.242 172.783 200.131 173.191 199.909C173.607 199.68 173.951 199.368 174.223 198.975C174.495 198.581 174.699 198.13 174.835 197.621C174.978 197.105 175.05 196.558 175.05 195.978V195.73C175.05 195.158 174.978 194.617 174.835 194.108C174.699 193.593 174.491 193.138 174.212 192.744C173.94 192.343 173.596 192.028 173.181 191.799C172.772 191.57 172.293 191.455 171.741 191.455C171.197 191.455 170.717 191.57 170.302 191.799C169.894 192.028 169.55 192.343 169.271 192.744C168.998 193.138 168.794 193.593 168.658 194.108C168.522 194.617 168.454 195.158 168.454 195.73ZM179.014 195.978V195.73C179.014 194.893 179.135 194.116 179.379 193.399C179.622 192.676 179.973 192.049 180.432 191.52C180.89 190.982 181.445 190.567 182.097 190.273C182.748 189.973 183.479 189.822 184.288 189.822C185.104 189.822 185.839 189.973 186.49 190.273C187.149 190.567 187.708 190.982 188.166 191.52C188.632 192.049 188.986 192.676 189.229 193.399C189.473 194.116 189.595 194.893 189.595 195.73V195.978C189.595 196.815 189.473 197.592 189.229 198.309C188.986 199.025 188.632 199.651 188.166 200.188C187.708 200.718 187.153 201.134 186.501 201.435C185.856 201.728 185.126 201.875 184.31 201.875C183.493 201.875 182.759 201.728 182.107 201.435C181.456 201.134 180.897 200.718 180.432 200.188C179.973 199.651 179.622 199.025 179.379 198.309C179.135 197.592 179.014 196.815 179.014 195.978ZM181.001 195.73V195.978C181.001 196.558 181.069 197.105 181.205 197.621C181.341 198.13 181.545 198.581 181.817 198.975C182.097 199.368 182.444 199.68 182.859 199.909C183.275 200.131 183.758 200.242 184.31 200.242C184.854 200.242 185.33 200.131 185.738 199.909C186.154 199.68 186.497 199.368 186.77 198.975C187.042 198.581 187.246 198.13 187.382 197.621C187.525 197.105 187.597 196.558 187.597 195.978V195.73C187.597 195.158 187.525 194.617 187.382 194.108C187.246 193.593 187.038 193.138 186.759 192.744C186.487 192.343 186.143 192.028 185.728 191.799C185.319 191.57 184.84 191.455 184.288 191.455C183.744 191.455 183.264 191.57 182.849 191.799C182.44 192.028 182.097 192.343 181.817 192.744C181.545 193.138 181.341 193.593 181.205 194.108C181.069 194.617 181.001 195.158 181.001 195.73ZM194.246 185.16V201.66H192.248V185.16H194.246ZM199.8 186.02L199.66 197.245H197.866L197.716 186.02H199.8ZM197.651 200.661C197.651 200.339 197.748 200.067 197.941 199.845C198.142 199.623 198.436 199.512 198.822 199.512C199.202 199.512 199.492 199.623 199.692 199.845C199.9 200.067 200.004 200.339 200.004 200.661C200.004 200.969 199.9 201.234 199.692 201.456C199.492 201.678 199.202 201.789 198.822 201.789C198.436 201.789 198.142 201.678 197.941 201.456C197.748 201.234 197.651 200.969 197.651 200.661Z" fill="#6CEFCE"/>
<rect x="206.47" y="179.66" width="2" height="30.25" fill="#6CEFCE"/>
<path d="M206.47 159.66C206.47 157.451 208.261 155.66 210.47 155.66H247.81C250.019 155.66 251.81 157.451 251.81 159.66V175.66C251.81 177.869 250.019 179.66 247.81 179.66H206.47V159.66Z" fill="#6CEFCE"/>
<path d="M214.179 162.707H215.71L218.588 170.384L221.459 162.707H222.991L219.19 172.66H217.973L214.179 162.707ZM213.482 162.707H214.938L215.191 169.352V172.66H213.482V162.707ZM222.232 162.707H223.695V172.66H221.979V169.352L222.232 162.707ZM229.738 171.177V167.649C229.738 167.385 229.69 167.157 229.594 166.966C229.498 166.774 229.352 166.626 229.157 166.521C228.965 166.417 228.724 166.364 228.432 166.364C228.163 166.364 227.931 166.41 227.735 166.501C227.539 166.592 227.386 166.715 227.277 166.87C227.167 167.025 227.113 167.201 227.113 167.396H225.472C225.472 167.105 225.543 166.822 225.684 166.549C225.825 166.275 226.03 166.032 226.299 165.817C226.568 165.603 226.889 165.435 227.263 165.312C227.637 165.188 228.056 165.127 228.521 165.127C229.077 165.127 229.569 165.22 229.997 165.407C230.43 165.594 230.77 165.877 231.016 166.255C231.267 166.629 231.392 167.098 231.392 167.663V170.951C231.392 171.288 231.415 171.591 231.46 171.86C231.51 172.125 231.581 172.355 231.672 172.551V172.66H229.984C229.906 172.482 229.845 172.257 229.799 171.983C229.758 171.705 229.738 171.437 229.738 171.177ZM229.977 168.162L229.991 169.181H228.808C228.503 169.181 228.234 169.21 228.001 169.27C227.769 169.324 227.575 169.406 227.42 169.516C227.265 169.625 227.149 169.757 227.072 169.912C226.994 170.067 226.955 170.243 226.955 170.438C226.955 170.634 227.001 170.814 227.092 170.979C227.183 171.138 227.315 171.263 227.489 171.354C227.666 171.446 227.88 171.491 228.131 171.491C228.468 171.491 228.762 171.423 229.013 171.286C229.268 171.145 229.469 170.974 229.615 170.773C229.76 170.568 229.838 170.375 229.847 170.192L230.38 170.924C230.325 171.111 230.232 171.311 230.1 171.525C229.968 171.74 229.795 171.945 229.58 172.141C229.371 172.332 229.118 172.489 228.822 172.612C228.53 172.735 228.193 172.797 227.81 172.797C227.327 172.797 226.896 172.701 226.518 172.51C226.14 172.314 225.843 172.052 225.629 171.724C225.415 171.391 225.308 171.015 225.308 170.596C225.308 170.204 225.381 169.857 225.527 169.557C225.677 169.251 225.896 168.996 226.183 168.791C226.475 168.586 226.83 168.431 227.249 168.326C227.669 168.217 228.147 168.162 228.685 168.162H229.977ZM234.769 166.672V172.66H233.121V165.264H234.694L234.769 166.672ZM237.032 165.216L237.018 166.747C236.918 166.729 236.808 166.715 236.69 166.706C236.576 166.697 236.462 166.692 236.348 166.692C236.065 166.692 235.817 166.733 235.603 166.815C235.389 166.893 235.209 167.007 235.063 167.157C234.921 167.303 234.812 167.481 234.735 167.69C234.657 167.9 234.612 168.135 234.598 168.395L234.222 168.422C234.222 167.957 234.268 167.526 234.359 167.13C234.45 166.733 234.587 166.385 234.769 166.084C234.956 165.783 235.188 165.549 235.466 165.38C235.749 165.211 236.074 165.127 236.444 165.127C236.544 165.127 236.651 165.136 236.765 165.154C236.883 165.173 236.972 165.193 237.032 165.216ZM240.949 171.484C241.217 171.484 241.459 171.432 241.673 171.327C241.892 171.218 242.067 171.067 242.199 170.876C242.336 170.685 242.411 170.464 242.425 170.213H243.977C243.968 170.691 243.826 171.127 243.553 171.519C243.28 171.91 242.917 172.223 242.466 172.455C242.015 172.683 241.516 172.797 240.969 172.797C240.404 172.797 239.912 172.701 239.492 172.51C239.073 172.314 238.725 172.045 238.447 171.703C238.169 171.361 237.959 170.967 237.818 170.521C237.681 170.074 237.613 169.595 237.613 169.085V168.846C237.613 168.335 237.681 167.857 237.818 167.41C237.959 166.959 238.169 166.562 238.447 166.221C238.725 165.879 239.073 165.612 239.492 165.421C239.912 165.225 240.402 165.127 240.962 165.127C241.555 165.127 242.074 165.245 242.521 165.482C242.967 165.715 243.318 166.041 243.574 166.46C243.833 166.875 243.968 167.358 243.977 167.909H242.425C242.411 167.636 242.343 167.39 242.22 167.171C242.102 166.948 241.933 166.77 241.714 166.638C241.5 166.506 241.242 166.439 240.942 166.439C240.609 166.439 240.333 166.508 240.115 166.645C239.896 166.777 239.725 166.959 239.602 167.191C239.479 167.419 239.39 167.677 239.335 167.964C239.285 168.246 239.26 168.54 239.26 168.846V169.085C239.26 169.39 239.285 169.687 239.335 169.974C239.385 170.261 239.472 170.518 239.595 170.746C239.723 170.969 239.896 171.149 240.115 171.286C240.333 171.418 240.611 171.484 240.949 171.484Z" fill="black"/>
</svg>
