<svg xmlns="http://www.w3.org/2000/svg" xmlns:xlink="http://www.w3.org/1999/xlink" width="100" zoomAndPan="magnify" viewBox="0 0 75 60" height="80" preserveAspectRatio="xMidYMid meet" version="1.0"><defs><g/><clipPath id="64c1590099"><path d="M 1.492188 25.265625 L 16.964844 25.265625 L 16.964844 33.21875 L 1.492188 33.21875 Z M 1.492188 25.265625 " clip-rule="nonzero"/></clipPath><clipPath id="d475839d83"><path d="M 2.089844 25.265625 L 16.339844 25.265625 C 16.667969 25.265625 16.9375 25.535156 16.9375 25.863281 L 16.9375 32.621094 C 16.9375 32.949219 16.667969 33.21875 16.339844 33.21875 L 2.089844 33.21875 C 1.757812 33.21875 1.492188 32.949219 1.492188 32.621094 L 1.492188 25.863281 C 1.492188 25.535156 1.757812 25.265625 2.089844 25.265625 Z M 2.089844 25.265625 " clip-rule="nonzero"/></clipPath><clipPath id="814d47f713"><path d="M 65.488281 42.601562 L 73.507812 42.601562 L 73.507812 50.625 L 65.488281 50.625 Z M 65.488281 42.601562 " clip-rule="nonzero"/></clipPath><clipPath id="491daf0112"><path d="M 69.496094 42.601562 C 67.28125 42.601562 65.488281 44.398438 65.488281 46.613281 C 65.488281 48.828125 67.28125 50.625 69.496094 50.625 C 71.714844 50.625 73.507812 48.828125 73.507812 46.613281 C 73.507812 44.398438 71.714844 42.601562 69.496094 42.601562 Z M 69.496094 42.601562 " clip-rule="nonzero"/></clipPath></defs><g fill="#004aad" fill-opacity="1"><g transform="translate(20.950867, 50.304868)"><g><path d="M 26.1875 -33.359375 C 29.976562 -33.359375 32.820312 -32.304688 34.71875 -30.203125 C 36.613281 -28.109375 37.5625 -25.082031 37.5625 -21.125 L 37.5625 0 L 25.265625 0 L 25.265625 -19.640625 C 25.265625 -21.046875 24.90625 -22.171875 24.1875 -23.015625 C 23.46875 -23.859375 22.445312 -24.28125 21.125 -24.28125 C 19.601562 -24.28125 18.367188 -23.785156 17.421875 -22.796875 C 16.472656 -21.804688 16 -20.59375 16 -19.15625 L 16 0 L 3.703125 0 L 3.703125 -32.625 L 13.78125 -32.625 L 14.578125 -27.671875 C 15.859375 -29.398438 17.535156 -30.78125 19.609375 -31.8125 C 21.691406 -32.84375 23.882812 -33.359375 26.1875 -33.359375 Z M 26.1875 -33.359375 "/></g></g></g><g clip-path="url(#64c1590099)"><g clip-path="url(#d475839d83)"><path fill="#004aad" d="M 1.492188 25.265625 L 16.933594 25.265625 L 16.933594 33.21875 L 1.492188 33.21875 Z M 1.492188 25.265625 " fill-opacity="1" fill-rule="nonzero"/></g></g><g clip-path="url(#814d47f713)"><g clip-path="url(#491daf0112)"><path fill="#000000" d="M 65.488281 42.601562 L 73.507812 42.601562 L 73.507812 50.625 L 65.488281 50.625 Z M 65.488281 42.601562 " fill-opacity="1" fill-rule="nonzero"/></g></g></svg>