<svg xmlns="http://www.w3.org/2000/svg" xmlns:xlink="http://www.w3.org/1999/xlink" width="100" zoomAndPan="magnify" viewBox="0 0 75 74.999997" height="100" preserveAspectRatio="xMidYMid meet" version="1.0"><defs><g/><clipPath id="386e076da8"><path d="M 4.195312 37.5 L 19.515625 37.5 L 19.515625 45.375 L 4.195312 45.375 Z M 4.195312 37.5 " clip-rule="nonzero"/></clipPath><clipPath id="aa49526cb9"><path d="M 4.945312 37.5 L 18.738281 37.5 C 19.152344 37.5 19.488281 37.835938 19.488281 38.25 L 19.488281 44.625 C 19.488281 45.039062 19.152344 45.375 18.738281 45.375 L 4.945312 45.375 C 4.53125 45.375 4.195312 45.039062 4.195312 44.625 L 4.195312 38.25 C 4.195312 37.835938 4.53125 37.5 4.945312 37.5 Z M 4.945312 37.5 " clip-rule="nonzero"/></clipPath><clipPath id="ff0af92da4"><path d="M 62.863281 49.976562 L 70.804688 49.976562 L 70.804688 57.917969 L 62.863281 57.917969 Z M 62.863281 49.976562 " clip-rule="nonzero"/></clipPath><clipPath id="44065107b6"><path d="M 66.832031 49.976562 C 64.640625 49.976562 62.863281 51.753906 62.863281 53.945312 C 62.863281 56.140625 64.640625 57.917969 66.832031 57.917969 C 69.027344 57.917969 70.804688 56.140625 70.804688 53.945312 C 70.804688 51.753906 69.027344 49.976562 66.832031 49.976562 Z M 66.832031 49.976562 " clip-rule="nonzero"/></clipPath></defs><g fill="#004aad" fill-opacity="1"><g transform="translate(22.059535, 57.601096)"><g><path d="M 25.9375 -33.03125 C 29.6875 -33.03125 32.5 -31.988281 34.375 -29.90625 C 36.25 -27.820312 37.1875 -24.828125 37.1875 -20.921875 L 37.1875 0 L 25.015625 0 L 25.015625 -19.453125 C 25.015625 -20.835938 24.65625 -21.945312 23.9375 -22.78125 C 23.226562 -23.613281 22.222656 -24.03125 20.921875 -24.03125 C 19.410156 -24.03125 18.1875 -23.539062 17.25 -22.5625 C 16.3125 -21.582031 15.84375 -20.378906 15.84375 -18.953125 L 15.84375 0 L 3.671875 0 L 3.671875 -32.296875 L 13.640625 -32.296875 L 14.4375 -27.390625 C 15.695312 -29.109375 17.351562 -30.476562 19.40625 -31.5 C 21.46875 -32.519531 23.644531 -33.03125 25.9375 -33.03125 Z M 25.9375 -33.03125 "/></g></g></g><g clip-path="url(#386e076da8)"><g clip-path="url(#aa49526cb9)"><path fill="#004aad" d="M 4.195312 37.5 L 19.484375 37.5 L 19.484375 45.375 L 4.195312 45.375 Z M 4.195312 37.5 " fill-opacity="1" fill-rule="nonzero"/></g></g><g clip-path="url(#ff0af92da4)"><g clip-path="url(#44065107b6)"><path fill="#000000" d="M 62.863281 49.976562 L 70.804688 49.976562 L 70.804688 57.917969 L 62.863281 57.917969 Z M 62.863281 49.976562 " fill-opacity="1" fill-rule="nonzero"/></g></g></svg>