<svg xmlns="http://www.w3.org/2000/svg" xmlns:xlink="http://www.w3.org/1999/xlink" width="200" zoomAndPan="magnify" viewBox="0 0 150 36.000001" height="48" preserveAspectRatio="xMidYMid meet" version="1.0"><defs><g/><clipPath id="8e333c5c2c"><path d="M 10.253906 17.550781 L 18.597656 17.550781 L 18.597656 21.839844 L 10.253906 21.839844 Z M 10.253906 17.550781 " clip-rule="nonzero"/></clipPath><clipPath id="7d40497c23"><path d="M 11.710938 17.550781 L 17.125 17.550781 C 17.511719 17.550781 17.882812 17.703125 18.15625 17.976562 C 18.429688 18.25 18.585938 18.621094 18.585938 19.007812 L 18.585938 20.382812 C 18.585938 20.769531 18.429688 21.140625 18.15625 21.414062 C 17.882812 21.6875 17.511719 21.839844 17.125 21.839844 L 11.710938 21.839844 C 11.324219 21.839844 10.953125 21.6875 10.679688 21.414062 C 10.40625 21.140625 10.253906 20.769531 10.253906 20.382812 L 10.253906 19.007812 C 10.253906 18.621094 10.40625 18.25 10.679688 17.976562 C 10.953125 17.703125 11.324219 17.550781 11.710938 17.550781 Z M 11.710938 17.550781 " clip-rule="nonzero"/></clipPath><clipPath id="0bb801eea8"><path d="M 133.367188 18.648438 L 139.746094 18.648438 L 139.746094 25.03125 L 133.367188 25.03125 Z M 133.367188 18.648438 " clip-rule="nonzero"/></clipPath><clipPath id="03b707d21a"><path d="M 136.558594 18.648438 C 134.796875 18.648438 133.367188 20.078125 133.367188 21.839844 C 133.367188 23.601562 134.796875 25.03125 136.558594 25.03125 C 138.320312 25.03125 139.746094 23.601562 139.746094 21.839844 C 139.746094 20.078125 138.320312 18.648438 136.558594 18.648438 Z M 136.558594 18.648438 " clip-rule="nonzero"/></clipPath></defs><g clip-path="url(#8e333c5c2c)"><g clip-path="url(#7d40497c23)"><path fill="#004aad" d="M 10.253906 17.550781 L 18.582031 17.550781 L 18.582031 21.839844 L 10.253906 21.839844 Z M 10.253906 17.550781 " fill-opacity="1" fill-rule="nonzero"/></g></g><g clip-path="url(#0bb801eea8)"><g clip-path="url(#03b707d21a)"><path fill="#000000" d="M 133.367188 18.648438 L 139.746094 18.648438 L 139.746094 25.03125 L 133.367188 25.03125 Z M 133.367188 18.648438 " fill-opacity="1" fill-rule="nonzero"/></g></g><g fill="#004aad" fill-opacity="1"><g transform="translate(20.243679, 25.248014)"><g><path d="M 10.25 -13.046875 C 11.726562 -13.046875 12.835938 -12.632812 13.578125 -11.8125 C 14.328125 -11 14.703125 -9.816406 14.703125 -8.265625 L 14.703125 0 L 9.890625 0 L 9.890625 -7.6875 C 9.890625 -8.238281 9.75 -8.675781 9.46875 -9 C 9.1875 -9.332031 8.785156 -9.5 8.265625 -9.5 C 7.671875 -9.5 7.1875 -9.304688 6.8125 -8.921875 C 6.445312 -8.535156 6.265625 -8.0625 6.265625 -7.5 L 6.265625 0 L 1.453125 0 L 1.453125 -12.765625 L 5.390625 -12.765625 L 5.703125 -10.828125 C 6.203125 -11.503906 6.859375 -12.039062 7.671875 -12.4375 C 8.484375 -12.84375 9.34375 -13.046875 10.25 -13.046875 Z M 10.25 -13.046875 "/></g></g></g><g fill="#000000" fill-opacity="1"><g transform="translate(33.899903, 25.248014)"><g><path d="M 8.046875 -13.046875 C 10.285156 -13.046875 12.046875 -12.476562 13.328125 -11.34375 C 14.609375 -10.207031 15.25 -8.550781 15.25 -6.375 C 15.25 -4.207031 14.609375 -2.550781 13.328125 -1.40625 C 12.046875 -0.269531 10.285156 0.296875 8.046875 0.296875 C 5.804688 0.296875 4.050781 -0.265625 2.78125 -1.390625 C 1.507812 -2.523438 0.875 -4.1875 0.875 -6.375 C 0.875 -8.570312 1.507812 -10.234375 2.78125 -11.359375 C 4.050781 -12.484375 5.804688 -13.046875 8.046875 -13.046875 Z M 8.046875 -9.796875 C 6.472656 -9.796875 5.6875 -8.882812 5.6875 -7.0625 L 5.6875 -5.6875 C 5.6875 -3.875 6.472656 -2.96875 8.046875 -2.96875 C 9.640625 -2.96875 10.4375 -3.875 10.4375 -5.6875 L 10.4375 -7.0625 C 10.4375 -8.882812 9.640625 -9.796875 8.046875 -9.796875 Z M 8.046875 -9.796875 "/></g></g></g><g fill="#000000" fill-opacity="1"><g transform="translate(47.554971, 25.248014)"><g><path d="M 9.953125 -12.765625 L 9.953125 -9.5 L 7.25 -9.5 L 7.25 -4.640625 C 7.25 -4.054688 7.34375 -3.628906 7.53125 -3.359375 C 7.726562 -3.097656 8.085938 -2.96875 8.609375 -2.96875 L 9.953125 -2.96875 L 9.953125 -0.140625 C 9.566406 -0.015625 9.066406 0.0859375 8.453125 0.171875 C 7.847656 0.253906 7.316406 0.296875 6.859375 0.296875 C 5.441406 0.296875 4.347656 0.0390625 3.578125 -0.46875 C 2.816406 -0.988281 2.4375 -1.875 2.4375 -3.125 L 2.4375 -9.5 L 0.65625 -9.5 L 0.65625 -12.765625 L 2.640625 -12.765625 L 3.671875 -16.625 L 7.25 -16.625 L 7.25 -12.765625 Z M 9.953125 -12.765625 "/></g></g></g><g fill="#000000" fill-opacity="1"><g transform="translate(55.820072, 25.248014)"><g><path d="M 8.046875 -13.046875 C 10.378906 -13.046875 12.160156 -12.5 13.390625 -11.40625 C 14.628906 -10.3125 15.25 -8.632812 15.25 -6.375 L 15.25 -5.5625 L 5.6875 -5.5625 C 5.6875 -4.644531 5.890625 -3.953125 6.296875 -3.484375 C 6.703125 -3.015625 7.351562 -2.78125 8.25 -2.78125 C 9.050781 -2.78125 9.640625 -2.945312 10.015625 -3.28125 C 10.398438 -3.625 10.59375 -4.078125 10.59375 -4.640625 L 15.25 -4.640625 C 15.25 -3.097656 14.660156 -1.890625 13.484375 -1.015625 C 12.304688 -0.140625 10.59375 0.296875 8.34375 0.296875 C 5.96875 0.296875 4.128906 -0.253906 2.828125 -1.359375 C 1.523438 -2.460938 0.875 -4.132812 0.875 -6.375 C 0.875 -8.570312 1.507812 -10.234375 2.78125 -11.359375 C 4.050781 -12.484375 5.804688 -13.046875 8.046875 -13.046875 Z M 8.25 -9.984375 C 6.726562 -9.984375 5.878906 -9.265625 5.703125 -7.828125 L 10.390625 -7.828125 C 10.390625 -8.492188 10.195312 -9.019531 9.8125 -9.40625 C 9.4375 -9.789062 8.914062 -9.984375 8.25 -9.984375 Z M 8.25 -9.984375 "/></g></g></g><g fill="#000000" fill-opacity="1"><g transform="translate(69.475139, 25.248014)"><g><path d="M 4.828125 0 L 0 -12.765625 L 5.171875 -12.765625 L 7.515625 -4.8125 L 7.6875 -4.8125 L 10.03125 -12.765625 L 14.765625 -12.765625 L 9.890625 0 Z M 4.828125 0 "/></g></g></g><g fill="#000000" fill-opacity="1"><g transform="translate(81.776674, 25.248014)"><g><path d="M 8.046875 -13.046875 C 10.378906 -13.046875 12.160156 -12.5 13.390625 -11.40625 C 14.628906 -10.3125 15.25 -8.632812 15.25 -6.375 L 15.25 -5.5625 L 5.6875 -5.5625 C 5.6875 -4.644531 5.890625 -3.953125 6.296875 -3.484375 C 6.703125 -3.015625 7.351562 -2.78125 8.25 -2.78125 C 9.050781 -2.78125 9.640625 -2.945312 10.015625 -3.28125 C 10.398438 -3.625 10.59375 -4.078125 10.59375 -4.640625 L 15.25 -4.640625 C 15.25 -3.097656 14.660156 -1.890625 13.484375 -1.015625 C 12.304688 -0.140625 10.59375 0.296875 8.34375 0.296875 C 5.96875 0.296875 4.128906 -0.253906 2.828125 -1.359375 C 1.523438 -2.460938 0.875 -4.132812 0.875 -6.375 C 0.875 -8.570312 1.507812 -10.234375 2.78125 -11.359375 C 4.050781 -12.484375 5.804688 -13.046875 8.046875 -13.046875 Z M 8.25 -9.984375 C 6.726562 -9.984375 5.878906 -9.265625 5.703125 -7.828125 L 10.390625 -7.828125 C 10.390625 -8.492188 10.195312 -9.019531 9.8125 -9.40625 C 9.4375 -9.789062 8.914062 -9.984375 8.25 -9.984375 Z M 8.25 -9.984375 "/></g></g></g><g fill="#000000" fill-opacity="1"><g transform="translate(95.431742, 25.248014)"><g><path d="M 9.203125 -13.078125 C 9.578125 -13.078125 9.910156 -13.03125 10.203125 -12.9375 C 10.492188 -12.851562 10.640625 -12.800781 10.640625 -12.78125 L 10.640625 -8.75 L 9.09375 -8.75 C 8.09375 -8.75 7.367188 -8.488281 6.921875 -7.96875 C 6.484375 -7.457031 6.265625 -6.695312 6.265625 -5.6875 L 6.265625 0 L 1.453125 0 L 1.453125 -12.765625 L 5.390625 -12.765625 L 5.703125 -10.828125 C 5.992188 -11.566406 6.453125 -12.125 7.078125 -12.5 C 7.710938 -12.882812 8.421875 -13.078125 9.203125 -13.078125 Z M 9.203125 -13.078125 "/></g></g></g><g fill="#000000" fill-opacity="1"><g transform="translate(103.696841, 25.248014)"><g><path d="M 7.515625 -13.046875 C 9.222656 -13.046875 10.671875 -12.710938 11.859375 -12.046875 C 13.046875 -11.378906 13.640625 -10.34375 13.640625 -8.9375 L 9.15625 -8.9375 C 9.15625 -9.40625 8.945312 -9.738281 8.53125 -9.9375 C 8.238281 -10.09375 7.875 -10.171875 7.4375 -10.171875 C 6.28125 -10.171875 5.703125 -9.898438 5.703125 -9.359375 C 5.703125 -9.046875 5.898438 -8.828125 6.296875 -8.703125 C 6.703125 -8.578125 7.367188 -8.441406 8.296875 -8.296875 C 9.421875 -8.128906 10.359375 -7.9375 11.109375 -7.71875 C 11.867188 -7.5 12.53125 -7.113281 13.09375 -6.5625 C 13.664062 -6.007812 13.953125 -5.234375 13.953125 -4.234375 C 13.953125 -2.597656 13.34375 -1.429688 12.125 -0.734375 C 10.90625 -0.046875 9.3125 0.296875 7.34375 0.296875 C 6.21875 0.296875 5.15625 0.140625 4.15625 -0.171875 C 3.15625 -0.492188 2.34375 -0.984375 1.71875 -1.640625 C 1.09375 -2.304688 0.78125 -3.144531 0.78125 -4.15625 L 5.25 -4.15625 L 5.25 -4.0625 C 5.257812 -3.507812 5.484375 -3.125 5.921875 -2.90625 C 6.367188 -2.695312 6.84375 -2.59375 7.34375 -2.59375 C 8.6875 -2.59375 9.359375 -2.90625 9.359375 -3.53125 C 9.359375 -3.851562 9.144531 -4.085938 8.71875 -4.234375 C 8.300781 -4.378906 7.617188 -4.53125 6.671875 -4.6875 C 5.523438 -4.882812 4.582031 -5.09375 3.84375 -5.3125 C 3.113281 -5.539062 2.472656 -5.925781 1.921875 -6.46875 C 1.378906 -7.007812 1.109375 -7.757812 1.109375 -8.71875 C 1.109375 -10.289062 1.703125 -11.40625 2.890625 -12.0625 C 4.078125 -12.71875 5.617188 -13.046875 7.515625 -13.046875 Z M 7.515625 -13.046875 "/></g></g></g><g fill="#000000" fill-opacity="1"><g transform="translate(115.998372, 25.248014)"><g><path d="M 8.046875 -13.046875 C 10.378906 -13.046875 12.160156 -12.5 13.390625 -11.40625 C 14.628906 -10.3125 15.25 -8.632812 15.25 -6.375 L 15.25 -5.5625 L 5.6875 -5.5625 C 5.6875 -4.644531 5.890625 -3.953125 6.296875 -3.484375 C 6.703125 -3.015625 7.351562 -2.78125 8.25 -2.78125 C 9.050781 -2.78125 9.640625 -2.945312 10.015625 -3.28125 C 10.398438 -3.625 10.59375 -4.078125 10.59375 -4.640625 L 15.25 -4.640625 C 15.25 -3.097656 14.660156 -1.890625 13.484375 -1.015625 C 12.304688 -0.140625 10.59375 0.296875 8.34375 0.296875 C 5.96875 0.296875 4.128906 -0.253906 2.828125 -1.359375 C 1.523438 -2.460938 0.875 -4.132812 0.875 -6.375 C 0.875 -8.570312 1.507812 -10.234375 2.78125 -11.359375 C 4.050781 -12.484375 5.804688 -13.046875 8.046875 -13.046875 Z M 8.25 -9.984375 C 6.726562 -9.984375 5.878906 -9.265625 5.703125 -7.828125 L 10.390625 -7.828125 C 10.390625 -8.492188 10.195312 -9.019531 9.8125 -9.40625 C 9.4375 -9.789062 8.914062 -9.984375 8.25 -9.984375 Z M 8.25 -9.984375 "/></g></g></g></svg>