<svg xmlns="http://www.w3.org/2000/svg" xmlns:xlink="http://www.w3.org/1999/xlink" width="48" zoomAndPan="magnify" viewBox="0 0 36 36.000001" height="48" preserveAspectRatio="xMidYMid meet" version="1.0"><defs><g/><clipPath id="6b3a281b9f"><path d="M 2.078125 17.511719 L 9.402344 17.511719 L 9.402344 21.277344 L 2.078125 21.277344 Z M 2.078125 17.511719 " clip-rule="nonzero"/></clipPath><clipPath id="fca1dcd90a"><path d="M 2.808594 17.511719 L 8.660156 17.511719 C 9.0625 17.511719 9.390625 17.839844 9.390625 18.242188 L 9.390625 20.546875 C 9.390625 20.953125 9.0625 21.277344 8.660156 21.277344 L 2.808594 21.277344 C 2.40625 21.277344 2.078125 20.953125 2.078125 20.546875 L 2.078125 18.242188 C 2.078125 17.839844 2.40625 17.511719 2.808594 17.511719 Z M 2.808594 17.511719 " clip-rule="nonzero"/></clipPath><clipPath id="98e9af2fce"><path d="M 30.125 23.476562 L 33.921875 23.476562 L 33.921875 27.273438 L 30.125 27.273438 Z M 30.125 23.476562 " clip-rule="nonzero"/></clipPath><clipPath id="423ccf1bf3"><path d="M 32.023438 23.476562 C 30.976562 23.476562 30.125 24.328125 30.125 25.375 C 30.125 26.425781 30.976562 27.273438 32.023438 27.273438 C 33.070312 27.273438 33.921875 26.425781 33.921875 25.375 C 33.921875 24.328125 33.070312 23.476562 32.023438 23.476562 Z M 32.023438 23.476562 " clip-rule="nonzero"/></clipPath></defs><g fill="#004aad" fill-opacity="1"><g transform="translate(10.61833, 27.12331)"><g><path d="M 12.390625 -15.78125 C 14.179688 -15.78125 15.523438 -15.28125 16.421875 -14.28125 C 17.328125 -13.289062 17.78125 -11.863281 17.78125 -10 L 17.78125 0 L 11.953125 0 L 11.953125 -9.296875 C 11.953125 -9.960938 11.78125 -10.492188 11.4375 -10.890625 C 11.101562 -11.285156 10.625 -11.484375 10 -11.484375 C 9.28125 -11.484375 8.695312 -11.25 8.25 -10.78125 C 7.800781 -10.3125 7.578125 -9.738281 7.578125 -9.0625 L 7.578125 0 L 1.75 0 L 1.75 -15.4375 L 6.515625 -15.4375 L 6.90625 -13.09375 C 7.507812 -13.914062 8.300781 -14.566406 9.28125 -15.046875 C 10.269531 -15.535156 11.304688 -15.78125 12.390625 -15.78125 Z M 12.390625 -15.78125 "/></g></g></g><g clip-path="url(#6b3a281b9f)"><g clip-path="url(#fca1dcd90a)"><path fill="#004aad" d="M 2.078125 17.511719 L 9.386719 17.511719 L 9.386719 21.277344 L 2.078125 21.277344 Z M 2.078125 17.511719 " fill-opacity="1" fill-rule="nonzero"/></g></g><g clip-path="url(#98e9af2fce)"><g clip-path="url(#423ccf1bf3)"><path fill="#000000" d="M 30.125 23.476562 L 33.921875 23.476562 L 33.921875 27.273438 L 30.125 27.273438 Z M 30.125 23.476562 " fill-opacity="1" fill-rule="nonzero"/></g></g></svg>